<svg viewBox="0 0 279.99999999999994 279.99999999999994" xmlns="http://www.w3.org/2000/svg" xmlns:xlink="http://www.w3.org/1999/xlink" xmlns:blush="http://design.blush" overflow="visible" width="279.99999999999994" height="279.99999999999994"><defs><circle id="masteravataaardefault-with-backdrop-path-1" cx="140" cy="140" r="140"/><path d="M83,36.3476251 C83,52.6289957 105.161905,65.8276544 132.5,65.8276544 C159.838095,65.8276544 182,52.6289957 182,36.3476251 C182,34.9853134 181.844841,33.6445843 181.544472,32.3313638 C210.784239,41.4879251 232,68.792221 232,101.051724 L232,110 L32,110 L32,101.051724 C32,68.3970853 53.7386736,40.8197864 83.5337207,32.0021267 C83.1821692,33.4207025 83,34.871494 83,36.3476251 Z" id="masteravataaardefault-with-backdrop-path-3"/></defs><g id="Master/Avataaar/Default with Backdrop" stroke="none" stroke-width="1" fill="none" fill-rule="evenodd" blush:has-customizable-colors="true" blush:viewBox="0 0 279.99999999999994 279.99999999999994" blush:i="0"><mask id="masteravataaardefault-with-backdrop-mask-2" fill="#ffffff" blush:i="0.0"><use xlink:href="#masteravataaardefault-with-backdrop-path-1" fill="#ffffff" blush:i="0.0.0"/></mask><use id="Oval" fill="#ebc3e5" xlink:href="#masteravataaardefault-with-backdrop-path-1" blush:color="Backdrop-500" blush:i="0.1"/><g id="Group" mask="url(#masteravataaardefault-with-backdrop-mask-2)" blush:i="0.2"><g transform="translate(7.000000, 0.000000)" blush:i="0.2.0"><path d="M133,36 C163.927946,36 189,61.072054 189,92 L189.000809,98.1660527 C194.675838,99.1185422 199,104.05429 199,110 L199,124 C199,130.052417 194.519235,135.058294 188.693975,135.881364 C186.627928,155.686472 174.237929,172.421678 157.001014,180.610469 L157,199 L161,199 C200.764502,199 233,231.235498 233,271 L233,280 L33,280 L33,271 C33,231.235498 65.235498,199 105,199 L109,199 L108.999984,180.610943 C91.7625487,172.422324 79.3721119,155.686854 77.3051107,135.88097 C71.480765,135.058294 67,130.052417 67,124 L67,110 C67,104.053942 71.3246685,99.1179645 77.0001873,98.1658855 L77,92 C77,61.072054 102.072054,36 133,36 Z" id="Body" fill="#eac7a8" fill-rule="evenodd" blush:color="Skin-500" blush:i="0.2.0.0"/><path d="M108.998216,180.610103 C116.272713,184.066155 124.410519,186 133,186 C141.588785,186 149.725969,184.066469 157.000016,180.610943 L157.000353,185.94579 C150.441661,190.398372 142.524652,193 134,193 C124.589035,193 115.918635,189.829263 108.998807,184.497795 Z" id="shadow" fill-opacity=".24" fill="#000" fill-rule="evenodd" blush:i="0.2.0.1"/><g id="Nose" fill="none" transform="translate(105.000000, 122.000000) scale(1 1)" fill-rule="evenodd" blush:width="56" blush:height="24" blush:component="Nose" blush:i="0.2.0.2" blush:value="Wide" blush:viewBox="12.880000000000003 5.831775700934578 30.239999999999995 12.336448598130843"><g id="Nose/Wide" stroke="none" stroke-width="1" fill="none" fill-rule="evenodd" blush:viewBox="12.880000000000003 5.831775700934578 30.239999999999995 12.336448598130843" blush:i="0.2.0.2.0"><path d="M13,6 C13,12.627417 16.8281211,18 28,18 C39.1718789,18 43,12.627417 43,6 C39.0361818,6 32.8972468,9 27.83815,9 C23.0794079,9 17.1013384,6 13,6 Z" id="Nose" fill-opacity=".16" fill="#000" blush:i="0.2.0.2.0.0"/></g></g><g id="Clothing" fill="none" transform="translate(1.000000, 170.000000) scale(1 1)" blush:width="264" blush:height="110" blush:component="Clothing" blush:i="0.2.0.3" blush:value="Blazer + Sweater" blush:viewBox="31.67999999999998 27.235576923076934 200.64000000000004 83.29326923076921"><defs blush:i="0.2.0.3.0"><path d="M67,1.34762511 C67,13.2107177 81.9984609,22.8276544 100.5,22.8276544 C119.001539,22.8276544 134,13.2107177 134,1.34762511 C134,0.994756918 133.98673,0.64387605 133.960492,0.295176488 C170.936371,3.3248899 200,34.2942196 200,72.0517235 L200,81 L0,81 L0,72.0517235 C-4.66584974e-15,33.952169 29.5925972,2.76433598 67.0465686,0.219447423 C67.0151943,0.594730017 67,0.970039821 67,1.34762511 Z" id="clothingblazer-sweater-path-1" blush:i="0.2.0.3.0.0"/></defs><g id="Clothing/Blazer + Sweater" stroke="none" stroke-width="1" fill="none" fill-rule="evenodd" blush:viewBox="31.67999999999998 27.235576923076934 200.64000000000004 83.29326923076921" blush:i="0.2.0.3.1"><g id="Shirt" transform="translate(32.000000, 29.000000)" blush:i="0.2.0.3.1.0"><mask id="clothingblazer-sweater-mask-2" fill="#ffffff" blush:i="0.2.0.3.1.0.0"><use xlink:href="#clothingblazer-sweater-path-1" fill="#ffffff" blush:i="0.2.0.3.1.0.0.0"/></mask><use id="Clothes" fill="#e6d25f" xlink:href="#clothingblazer-sweater-path-1" blush:color="Top-500" blush:i="0.2.0.3.1.0.1"/><g id="Shadowy" opacity=".6" mask="url(#clothingblazer-sweater-mask-2)" fill="#000" fill-opacity=".16" blush:i="0.2.0.3.1.0.2"><g transform="translate(60.000000, -25.000000)" id="Hola-👋🏼" blush:i="0.2.0.3.1.0.2.0"><ellipse cx="40.5" cy="27.848" rx="39.635" ry="26.914" blush:i="0.2.0.3.1.0.2.0.0"/></g></g></g><g id="Blazer" transform="translate(32.000000, 28.000000)" blush:i="0.2.0.3.1.1"><path d="M64,40.5 C64,55.7092257 65.9608691,69.9209213 69.3620096,82.0011822 L0,82 L0,73.0517235 C-4.73779789e-15,34.3646678 30.512279,2.80413671 68.7847355,1.12223161 C65.7400343,12.7307619 64,26.1727873 64,40.5 Z M200,73.0517235 L200,82 L131.63799,82.0011822 C135.039131,69.9209213 137,55.7092257 137,40.5 C137,26.194165 135.265154,12.7708778 132.228695,1.1737534 C170.025091,3.36299447 200,34.7068514 200,73.0517235 Z" id="Saco" fill="#143045" blush:i="0.2.0.3.1.1.0"/><path d="M149,58 L158.555853,50.83311 C159.998897,49.7508275 161.987779,49.7682725 163.411616,50.8757011 L170,56 L170,56 L149,58 Z" id="Pocket-hanky" fill="#e6d25f" blush:color="Top-500" blush:i="0.2.0.3.1.1.1"/><path d="M69,0 C65,19.3333333 66.6666667,46.6666667 74,82 L58,82 L44,46 L50,37 L44,31 L63,1 C65.027659,0.369238637 67.027659,0.0359053037 69,0 Z" id="Wing" fill="#D23474" blush:i="0.2.0.3.1.1.2"/><path d="M151,0 C147,19.3333333 148.666667,46.6666667 156,82 L140,82 L126,46 L132,37 L126,31 L145,1 C147.027659,0.369238637 149.027659,0.0359053037 151,0 Z" id="Wing" fill="#D23474" transform="translate(141.000000, 41.000000) scale(-1, 1) translate(-141.000000, -41.000000)" blush:i="0.2.0.3.1.1.3"/></g></g></g><g id="Mouth" fill="none" transform="translate(79.000000, 134.000000) scale(1 1)" fill-rule="evenodd" blush:width="108" blush:height="44" blush:component="Mouth" blush:i="0.2.0.4" blush:value="Twinkle" blush:viewBox="39.96000000000001 13.911764705882348 28.080000000000027 11.323529411764714"><g id="Mouth/Twinkle" stroke="none" stroke-width="1" fill="none" fill-rule="evenodd" blush:viewBox="39.96000000000001 13.911764705882348 28.080000000000027 11.323529411764714" blush:i="0.2.0.4.0"><path d="M40,16 C40,21.371763 46.1581544,25 54,25 C61.8418456,25 68,21.371763 68,16 C68,14.8954305 67.050301,14 66,14 C64.7072748,14 64.1302316,14.9051755 64,16 C62.7575758,18.9378973 59.6832595,20.7163149 54,21 C48.3167405,20.7163149 45.2424242,18.9378973 44,16 C43.8697684,14.9051755 43.2927252,14 42,14 C40.949699,14 40,14.8954305 40,16 Z" id="Mouth" fill-opacity=".6" fill="#000" fill-rule="nonzero" blush:i="0.2.0.4.0.0"/></g></g><g id="Eyes" fill="none" transform="translate(77.000000, 90.000000) scale(1 1)" fill-rule="evenodd" blush:width="112" blush:height="44" blush:component="Eyes" blush:i="0.2.0.5" blush:value="Default" blush:viewBox="23.519999999999996 15.826530612244895 64.96 12.346938775510205"><g id="Eyes/Default" stroke="none" stroke-width="1" fill="none" fill-rule="evenodd" blush:viewBox="23.519999999999996 15.826530612244895 64.96 12.346938775510205" blush:i="0.2.0.5.0"><circle id="Eye" fill-opacity=".6" fill="#000" cx="30" cy="22" r="6" blush:i="0.2.0.5.0.0"/><circle id="Eye" fill-opacity=".6" fill="#000" cx="82" cy="22" r="6" blush:i="0.2.0.5.0.1"/></g></g><g id="Eyebrow/Outline" fill="none" transform="translate(77.000000, 82.000000) scale(1 1)" fill-rule="evenodd" blush:width="112" blush:height="24" blush:component="Eyebrow/Outline" blush:i="0.2.0.6" blush:value="Default" blush:viewBox="11.760000000000005 5.551401869158877 88.48000000000002 12.897196261682238"><g id="Eyebrow/Outline/Default" stroke="none" stroke-width="1" fill="none" fill-rule="evenodd" blush:viewBox="11.760000000000005 5.551401869158877 88.48000000000002 12.897196261682238" blush:i="0.2.0.6.0"><g id="I-Browse" transform="translate(12.000000, 6.000000)" fill="#000" fill-opacity=".6" fill-rule="nonzero" blush:i="0.2.0.6.0.0"><path d="M3.63024536,11.1585767 C7.54515501,5.64986673 18.2779197,2.56083721 27.5230268,4.83118046 C28.5957248,5.0946055 29.6788665,4.43856013 29.9422916,3.36586212 C30.2057166,2.2931641 29.5496712,1.21002236 28.4769732,0.94659732 C17.7403633,-1.69001789 5.31209962,1.88699832 0.369754639,8.84142326 C-0.270109626,9.74178291 -0.0589363917,10.9903811 0.84142326,11.6302454 C1.74178291,12.2701096 2.9903811,12.0589364 3.63024536,11.1585767 Z" id="Eyebrow" blush:i="0.2.0.6.0.0.0"/><path d="M61.6302454,11.1585767 C65.545155,5.64986673 76.2779197,2.56083721 85.5230268,4.83118046 C86.5957248,5.0946055 87.6788665,4.43856013 87.9422916,3.36586212 C88.2057166,2.2931641 87.5496712,1.21002236 86.4769732,0.94659732 C75.7403633,-1.69001789 63.3120996,1.88699832 58.3697546,8.84142326 C57.7298904,9.74178291 57.9410636,10.9903811 58.8414233,11.6302454 C59.7417829,12.2701096 60.9903811,12.0589364 61.6302454,11.1585767 Z" id="Eyebrow" transform="translate(73.000154, 6.039198) scale(-1, 1) translate(-73.000154, -6.039198)" blush:i="0.2.0.6.0.0.1"/></g></g></g><g id="Facial Hair" fill="none" transform="translate(50.000000, 72.000000) scale(1 1)" fill-rule="evenodd" blush:width="168" blush:height="152" blush:component="Facial Hair" blush:i="0.2.0.7" blush:value="-Blank" blush:viewBox="294 266 0 0"><g id="Facial Hair/Blank" stroke="none" stroke-width="1" fill="none" fill-rule="evenodd" fill-opacity="0" blush:viewBox="294 266 0 0" blush:i="0.2.0.7.0"/></g><g id="Hairstyle" fill="none" fill-rule="evenodd" blush:width="266" blush:height="280" blush:component="Hairstyle" blush:i="0.2.0.8" blush:value="Mowgli" transform="scale(1 1)" blush:viewBox="37.10000000000002 7 193.19999999999996 151.2"><g id="Hairstyle/Mowgli" stroke="none" stroke-width="1" fill="none" fill-rule="evenodd" blush:viewBox="37.10000000000002 7 193.19999999999996 151.2" blush:i="0.2.0.8.0"><path d="M80,98 C94.6666667,94 107.666667,88.6666667 119,82 C117,86 109,94 126,89 C143,84 158,71 159,71 C160,71 169,107 178,108 C184,108.666667 187,100.333333 187,83 L187,84 L187,80 L179,58 L148,48 L108,55 L82,65 L75,83 L80,98 Z" id="Path-7" fill-opacity=".16" fill="#000" blush:i="0.2.0.8.0.0"/><path d="M204.5485,59.1062 C204.5485,59.1062 217.9885,61.1042 218.8975,57.8352 C219.8055,54.5652 213.9935,44.2132 182.9355,38.4012 C182.9355,38.4012 189.8375,24.5972 187.2945,24.5972 C184.7515,24.5972 178.3955,33.1342 178.3955,33.1342 C178.3955,33.1342 166.2265,6.0712 162.4115,7.3432 C158.5975,8.6142 162.4115,21.1472 162.4115,21.1472 C162.4115,21.1472 137.7105,6.0632 102.2945,8.4332 C79.5835,9.9522 77.4115,16.2342 88.4905,22.2322 C88.4905,22.2322 73.0525,26.5952 54.1635,46.3922 C35.2745,66.1892 37.0905,77.4502 38.5435,78.7222 C39.9965,79.9932 52.7105,74.1812 52.7105,74.1812 C52.7105,74.1812 44.7185,90.1642 45.0815,112.8672 C45.5625,142.9252 56.8875,149.5562 60.3385,149.9192 C63.7895,150.2822 62.6995,139.9892 62.6995,139.9892 C62.6995,139.9892 70.5605,154.0742 84.1905,157.6542 C80.3235,150.8412 77.8445,143.1362 77.1375,134.9252 C71.3605,134.0612 66.9285,129.0772 66.9285,123.0582 L66.9285,110.0582 C66.9285,104.5292 70.6695,99.8792 75.7565,98.4872 C75.7235,104.2892 75.7855,119.8152 77.4115,119.2242 C79.4085,118.4982 83.4045,89.9822 83.4045,89.9822 C83.4045,89.9822 112.8285,86.3502 138.6185,63.1022 C138.6185,63.1022 118.4585,83.9892 121.1825,85.4422 C123.9075,86.8952 153.3425,73.5512 161.6855,61.8312 C161.6855,61.8312 163.6835,73.8922 166.9525,84.2452 C168.9945,90.7112 175.3075,102.5152 178.0315,101.7882 C180.7565,101.0622 181.1185,88.3482 181.1185,88.3482 C181.1185,88.3482 184.3885,114.8652 186.2045,113.5942 C188.0215,112.3222 188.9295,98.2242 188.9295,98.2242 C194.6045,99.1762 198.9295,104.1122 198.9295,110.0582 L198.9295,123.0582 C198.9295,129.0772 194.4975,134.0612 188.7205,134.9252 C188.0175,143.0852 185.5635,150.7432 181.7365,157.5262 C186.2625,155.1792 192.3605,150.4352 196.5575,141.0202 C196.5575,141.0202 190.5645,157.6602 194.7405,158.0582 C198.9185,158.4552 216.1735,148.1032 219.6235,120.8582 C219.6235,120.8582 224.1645,128.8502 227.6145,127.3972 C231.0665,125.9442 229.6125,80.3562 204.5485,59.1062" id="Fill-1" fill="#a55728" blush:color="Hair-500" blush:i="0.2.0.8.0.1"/></g></g><g id="Accesories" fill="none" transform="translate(63.000000, 85.000000) scale(1 1)" fill-rule="evenodd" blush:width="142" blush:height="54" blush:component="Accesories" blush:i="0.2.0.9" blush:value="Blank" blush:viewBox="248.5 94.5 0 0"><g id="Accesories/Blank" stroke="none" stroke-width="1" fill="none" fill-rule="evenodd" fill-opacity="0" blush:viewBox="248.5 94.5 0 0" blush:i="0.2.0.9.0"/></g></g></g></g></svg>