<svg viewBox="0 0 279.99999999999994 279.99999999999994" xmlns="http://www.w3.org/2000/svg" xmlns:xlink="http://www.w3.org/1999/xlink" xmlns:blush="http://design.blush" overflow="visible" width="279.99999999999994" height="279.99999999999994"><defs><circle id="masteravataaardefault-with-backdrop-path-1" cx="140" cy="140" r="140"/><path d="M83,36.3476251 C83,52.6289957 105.161905,65.8276544 132.5,65.8276544 C159.838095,65.8276544 182,52.6289957 182,36.3476251 C182,34.9853134 181.844841,33.6445843 181.544472,32.3313638 C210.784239,41.4879251 232,68.792221 232,101.051724 L232,110 L32,110 L32,101.051724 C32,68.3970853 53.7386736,40.8197864 83.5337207,32.0021267 C83.1821692,33.4207025 83,34.871494 83,36.3476251 Z" id="masteravataaardefault-with-backdrop-path-3"/></defs><g id="Master/Avataaar/Default with Backdrop" stroke="none" stroke-width="1" fill="none" fill-rule="evenodd" blush:has-customizable-colors="true" blush:viewBox="0 0 279.99999999999994 279.99999999999994" blush:i="0"><mask id="masteravataaardefault-with-backdrop-mask-2" fill="#ffffff" blush:i="0.0"><use xlink:href="#masteravataaardefault-with-backdrop-path-1" fill="#ffffff" blush:i="0.0.0"/></mask><use id="Oval" fill="#ebc3e5" xlink:href="#masteravataaardefault-with-backdrop-path-1" blush:color="Backdrop-500" blush:i="0.1"/><g id="Group" mask="url(#masteravataaardefault-with-backdrop-mask-2)" blush:i="0.2"><g transform="translate(7.000000, 0.000000)" blush:i="0.2.0"><path d="M133,36 C163.927946,36 189,61.072054 189,92 L189.000809,98.1660527 C194.675838,99.1185422 199,104.05429 199,110 L199,124 C199,130.052417 194.519235,135.058294 188.693975,135.881364 C186.627928,155.686472 174.237929,172.421678 157.001014,180.610469 L157,199 L161,199 C200.764502,199 233,231.235498 233,271 L233,280 L33,280 L33,271 C33,231.235498 65.235498,199 105,199 L109,199 L108.999984,180.610943 C91.7625487,172.422324 79.3721119,155.686854 77.3051107,135.88097 C71.480765,135.058294 67,130.052417 67,124 L67,110 C67,104.053942 71.3246685,99.1179645 77.0001873,98.1658855 L77,92 C77,61.072054 102.072054,36 133,36 Z" id="Body" fill="#d4a181" fill-rule="evenodd" blush:color="Skin-500" blush:i="0.2.0.0"/><path d="M108.998216,180.610103 C116.272713,184.066155 124.410519,186 133,186 C141.588785,186 149.725969,184.066469 157.000016,180.610943 L157.000353,185.94579 C150.441661,190.398372 142.524652,193 134,193 C124.589035,193 115.918635,189.829263 108.998807,184.497795 Z" id="shadow" fill-opacity=".24" fill="#000" fill-rule="evenodd" blush:i="0.2.0.1"/><g id="Nose" fill="none" transform="translate(105.000000, 122.000000) scale(1 1)" fill-rule="evenodd" blush:width="56" blush:height="24" blush:component="Nose" blush:i="0.2.0.2" blush:value="Medium" blush:viewBox="15.959999999999994 7.794392523364486 24.07999999999999 8.411214953271022"><g id="Nose/Medium" stroke="none" stroke-width="1" fill="none" fill-rule="evenodd" blush:viewBox="15.959999999999994 7.794392523364486 24.07999999999999 8.411214953271022" blush:i="0.2.0.2.0"><path d="M16,8 C16,12.418278 21.372583,16 28,16 L28,16 C34.627417,16 40,12.418278 40,8" id="Nose" fill-opacity=".16" fill="#000" blush:i="0.2.0.2.0.0"/></g></g><g id="Clothing" fill="none" transform="translate(1.000000, 170.000000) scale(1 1)" blush:width="264" blush:height="110" blush:component="Clothing" blush:i="0.2.0.3" blush:value="Shirt Wick" blush:viewBox="30.359999999999985 28.557692307692307 203.28000000000003 83.29326923076924"><g id="Clothing/Shirt Wick" stroke="none" stroke-width="1" fill="none" fill-rule="evenodd" blush:viewBox="30.359999999999985 28.557692307692307 203.28000000000003 83.29326923076924" blush:i="0.2.0.3.0"><g id="Wick-suit" transform="translate(31.500000, 28.600000)" blush:i="0.2.0.3.0.0"><path d="M124.379699,3.0005061 L128.359699,3.0005061 C167.925874,3.0005061 199.999699,34.434727 199.999699,73.2118883 L199.999699,81.9883111 L0.9996985,81.9883111 L0.9996985,73.2118883 L1.0096485,72.050475 C1.6424685,33.8096507 33.4695335,3.0005061 72.6396985,3.0005061 L76.6196985,3.0005061 C76.6196985,3.0005061 76.4236835,15.1129447 100.491739,15.1129447 C124.559794,15.1129447 124.379699,3.0005061 124.379699,3.0005061" id="Fill-1" fill="#EDEDED" blush:i="0.2.0.3.0.0.0"/><path d="M118.32468,81.988311 L107.529975,28.3672744 C111.54093,27.0767256 114.229305,24.7476646 114.229305,22.0795183 C114.229305,18.0155549 108.00735,14.7198476 100.334175,14.7198476 C92.659995,14.7198476 86.439045,18.0155549 86.439045,22.0795183 C86.439045,24.7476646 89.12742,27.0767256 93.138375,28.3672744 L82.34367,81.988311 L118.32468,81.988311 Z" id="Fill-4" fill="#e65ed4" blush:color="Top-500" blush:i="0.2.0.3.0.0.1"/><path d="M86.846271,30.4401 L100.520301,16.6691854 L114.194331,30.4401 L142.147401,2.28791707 C137.769621,1.45386829 133.258176,1.00040488 128.639196,1.00040488 L124.619196,1.00040488 C124.619196,1.00040488 124.801101,13.5728805 100.491156,13.5728805 C76.181211,13.5728805 76.380201,1.00040488 76.380201,1.00040488 L72.360201,1.00040488 C67.753281,1.00040488 63.252891,1.44981951 58.885161,2.27981951 L86.846271,30.4401 Z" id="Fill-7" fill="#FFF" blush:i="0.2.0.3.0.0.2"/><path d="M128.639698,0.000506097561 L124.640803,0.000506097561 L124.640803,81.988311 L200.999698,81.988311 L200.999698,72.8785549 C200.999698,32.6286159 168.603523,0.000506097561 128.639698,0.000506097561" id="Fill-9" fill="#191919" blush:i="0.2.0.3.0.0.3"/><path d="M76.380201,0.000506097561 L72.360201,0.000506097561 C32.796366,0.000506097561 0.649431,31.9797988 0.009246,71.6730305 L0.000201,72.8785549 L0.000201,81.988311 L76.380201,81.988311 L76.380201,0.000506097561 Z" id="Fill-12" fill="#191919" blush:i="0.2.0.3.0.0.4"/><path d="M66.873906,0.206082927 L40.132866,43.4571805 L62.584566,56.6946683 L48.757776,75.9982415 L55.328466,81.9884122 L76.380201,81.9884122 L76.380201,0.000607317073 C76.380201,0.000607317073 73.264701,0.0431195122 66.873906,0.206082927" id="Fill-15" fill="#2B2B2B" blush:i="0.2.0.3.0.0.5"/><path d="M134.28006,0.224909756 L160.887435,43.4577878 L138.435735,56.6942634 L152.26353,75.9978366 L145.69083,81.9880073 L124.6401,81.9869951 L124.6401,-0.000809756098 C124.6401,-0.000809756098 127.889265,0.0619463415 134.28006,0.224909756" id="Fill-18" fill="#2B2B2B" blush:i="0.2.0.3.0.0.6"/></g></g></g><g id="Mouth" fill="none" transform="translate(79.000000, 134.000000) scale(1 1)" fill-rule="evenodd" blush:width="108" blush:height="44" blush:component="Mouth" blush:i="0.2.0.4" blush:value="Default" blush:viewBox="39.96000000000001 14.990196078431374 28.080000000000027 14.019607843137255"><g id="Mouth/Default" stroke="none" stroke-width="1" fill="none" fill-rule="evenodd" blush:viewBox="39.96000000000001 14.990196078431374 28.080000000000027 14.019607843137255" blush:i="0.2.0.4.0"><path d="M40,15 C40,22.7319865 46.2680135,29 54,29 L54,29 C61.7319865,29 68,22.7319865 68,15" id="Mouth" fill-opacity=".7" fill="#000" blush:i="0.2.0.4.0.0"/></g></g><g id="Eyes" fill="none" transform="translate(77.000000, 90.000000) scale(1 1)" fill-rule="evenodd" blush:width="112" blush:height="44" blush:component="Eyes" blush:i="0.2.0.5" blush:value="Default" blush:viewBox="23.519999999999996 15.826530612244895 64.96 12.346938775510205"><g id="Eyes/Default" stroke="none" stroke-width="1" fill="none" fill-rule="evenodd" blush:viewBox="23.519999999999996 15.826530612244895 64.96 12.346938775510205" blush:i="0.2.0.5.0"><circle id="Eye" fill-opacity=".6" fill="#000" cx="30" cy="22" r="6" blush:i="0.2.0.5.0.0"/><circle id="Eye" fill-opacity=".6" fill="#000" cx="82" cy="22" r="6" blush:i="0.2.0.5.0.1"/></g></g><g id="Eyebrow/Outline" fill="none" transform="translate(77.000000, 82.000000) scale(1 1)" fill-rule="evenodd" blush:width="112" blush:height="24" blush:component="Eyebrow/Outline" blush:i="0.2.0.6" blush:value="Default" blush:viewBox="11.760000000000005 5.551401869158877 88.48000000000002 12.897196261682238"><g id="Eyebrow/Outline/Default" stroke="none" stroke-width="1" fill="none" fill-rule="evenodd" blush:viewBox="11.760000000000005 5.551401869158877 88.48000000000002 12.897196261682238" blush:i="0.2.0.6.0"><g id="I-Browse" transform="translate(12.000000, 6.000000)" fill="#000" fill-opacity=".6" fill-rule="nonzero" blush:i="0.2.0.6.0.0"><path d="M3.63024536,11.1585767 C7.54515501,5.64986673 18.2779197,2.56083721 27.5230268,4.83118046 C28.5957248,5.0946055 29.6788665,4.43856013 29.9422916,3.36586212 C30.2057166,2.2931641 29.5496712,1.21002236 28.4769732,0.94659732 C17.7403633,-1.69001789 5.31209962,1.88699832 0.369754639,8.84142326 C-0.270109626,9.74178291 -0.0589363917,10.9903811 0.84142326,11.6302454 C1.74178291,12.2701096 2.9903811,12.0589364 3.63024536,11.1585767 Z" id="Eyebrow" blush:i="0.2.0.6.0.0.0"/><path d="M61.6302454,11.1585767 C65.545155,5.64986673 76.2779197,2.56083721 85.5230268,4.83118046 C86.5957248,5.0946055 87.6788665,4.43856013 87.9422916,3.36586212 C88.2057166,2.2931641 87.5496712,1.21002236 86.4769732,0.94659732 C75.7403633,-1.69001789 63.3120996,1.88699832 58.3697546,8.84142326 C57.7298904,9.74178291 57.9410636,10.9903811 58.8414233,11.6302454 C59.7417829,12.2701096 60.9903811,12.0589364 61.6302454,11.1585767 Z" id="Eyebrow" transform="translate(73.000154, 6.039198) scale(-1, 1) translate(-73.000154, -6.039198)" blush:i="0.2.0.6.0.0.1"/></g></g></g><g id="Facial Hair" fill="none" transform="translate(50.000000, 72.000000) scale(1 1)" fill-rule="evenodd" blush:width="168" blush:height="152" blush:component="Facial Hair" blush:i="0.2.0.7" blush:value="-Blank" blush:viewBox="294 266 0 0"><g id="Facial Hair/Blank" stroke="none" stroke-width="1" fill="none" fill-rule="evenodd" fill-opacity="0" blush:viewBox="294 266 0 0" blush:i="0.2.0.7.0"/></g><g id="Hairstyle" fill="none" fill-rule="evenodd" blush:width="266" blush:height="280" blush:component="Hairstyle" blush:i="0.2.0.8" blush:value="The Caesar" transform="scale(1 1)" blush:viewBox="74.89999999999998 34.99999999999997 116.19999999999995 64.39999999999998"><g id="Hairstyle/The Caesar" stroke="none" stroke-width="1" fill="none" fill-rule="evenodd" blush:viewBox="74.89999999999998 34.99999999999997 116.19999999999995 64.39999999999998" blush:i="0.2.0.8.0"><path d="M76,98 C76.3468563,99.488448 77.6727559,99.2226722 78,98 C77.5372601,96.445722 81.2959449,69.2480719 91,62 C94.618222,59.4833872 114.008216,57.2319099 133.312614,57.245568 C152.408606,57.2590787 171.42084,59.5105561 175,62 C184.704055,69.2480719 188.46274,96.445722 188,98 C188.327244,99.2226722 189.653144,99.488448 190,98 C190.719178,87.7019177 190,34.2743628 133,35 C76,35.7256372 75.2808215,87.7019177 76,98 Z" id="Caesar" fill="#a55728" blush:color="Hair-500" blush:i="0.2.0.8.0.0"/></g></g><g id="Accesories" fill="none" transform="translate(63.000000, 85.000000) scale(1 1)" fill-rule="evenodd" blush:width="142" blush:height="54" blush:component="Accesories" blush:i="0.2.0.9" blush:value="Blank" blush:viewBox="248.5 94.5 0 0"><g id="Accesories/Blank" stroke="none" stroke-width="1" fill="none" fill-rule="evenodd" fill-opacity="0" blush:viewBox="248.5 94.5 0 0" blush:i="0.2.0.9.0"/></g></g></g></g></svg>