<svg viewBox="0 0 279.99999999999994 279.99999999999994" xmlns="http://www.w3.org/2000/svg" xmlns:xlink="http://www.w3.org/1999/xlink" xmlns:blush="http://design.blush" overflow="visible" width="279.99999999999994" height="279.99999999999994"><defs><circle id="masteravataaardefault-with-backdrop-path-1" cx="140" cy="140" r="140"/><path d="M83,36.3476251 C83,52.6289957 105.161905,65.8276544 132.5,65.8276544 C159.838095,65.8276544 182,52.6289957 182,36.3476251 C182,34.9853134 181.844841,33.6445843 181.544472,32.3313638 C210.784239,41.4879251 232,68.792221 232,101.051724 L232,110 L32,110 L32,101.051724 C32,68.3970853 53.7386736,40.8197864 83.5337207,32.0021267 C83.1821692,33.4207025 83,34.871494 83,36.3476251 Z" id="masteravataaardefault-with-backdrop-path-3"/></defs><g id="Master/Avataaar/Default with Backdrop" stroke="none" stroke-width="1" fill="none" fill-rule="evenodd" blush:has-customizable-colors="true" blush:viewBox="0 0 279.99999999999994 279.99999999999994" blush:i="0"><mask id="masteravataaardefault-with-backdrop-mask-2" fill="#ffffff" blush:i="0.0"><use xlink:href="#masteravataaardefault-with-backdrop-path-1" fill="#ffffff" blush:i="0.0.0"/></mask><use id="Oval" fill="#b9eee9" xlink:href="#masteravataaardefault-with-backdrop-path-1" blush:color="Backdrop-500" blush:i="0.1"/><g id="Group" mask="url(#masteravataaardefault-with-backdrop-mask-2)" blush:i="0.2"><g transform="translate(7.000000, 0.000000)" blush:i="0.2.0"><path d="M133,36 C163.927946,36 189,61.072054 189,92 L189.000809,98.1660527 C194.675838,99.1185422 199,104.05429 199,110 L199,124 C199,130.052417 194.519235,135.058294 188.693975,135.881364 C186.627928,155.686472 174.237929,172.421678 157.001014,180.610469 L157,199 L161,199 C200.764502,199 233,231.235498 233,271 L233,280 L33,280 L33,271 C33,231.235498 65.235498,199 105,199 L109,199 L108.999984,180.610943 C91.7625487,172.422324 79.3721119,155.686854 77.3051107,135.88097 C71.480765,135.058294 67,130.052417 67,124 L67,110 C67,104.053942 71.3246685,99.1179645 77.0001873,98.1658855 L77,92 C77,61.072054 102.072054,36 133,36 Z" id="Body" fill="#d08b5b" fill-rule="evenodd" blush:color="Skin-500" blush:i="0.2.0.0"/><path d="M108.998216,180.610103 C116.272713,184.066155 124.410519,186 133,186 C141.588785,186 149.725969,184.066469 157.000016,180.610943 L157.000353,185.94579 C150.441661,190.398372 142.524652,193 134,193 C124.589035,193 115.918635,189.829263 108.998807,184.497795 Z" id="shadow" fill-opacity=".24" fill="#000" fill-rule="evenodd" blush:i="0.2.0.1"/><g id="Nose" fill="none" transform="translate(105.000000, 122.000000) scale(1 1)" fill-rule="evenodd" blush:width="56" blush:height="24" blush:component="Nose" blush:i="0.2.0.2" blush:value="Small" blush:viewBox="19.880000000000003 6.953271028037381 16.240000000000016 8.130841121495324"><g id="Nose/Small" stroke="none" stroke-width="1" fill="none" fill-rule="evenodd" blush:viewBox="19.880000000000003 6.953271028037381 16.240000000000016 8.130841121495324" blush:i="0.2.0.2.0"><path d="M20,7 C20,12.5228475 24.0470996,15 28,15 C31.9529004,15 36,12.5228475 36,7 C33.8327451,7.7317728 31.1406373,8.0976592 27.9236765,8.0976592 C24.7406373,8.0976592 22.0994118,7.7317728 20,7 Z" id="Nose" fill-opacity=".16" fill="#000" blush:i="0.2.0.2.0.0"/></g></g><g id="Clothing" fill="none" transform="translate(1.000000, 170.000000) scale(1 1)" blush:width="264" blush:height="110" blush:component="Clothing" blush:i="0.2.0.3" blush:value="Blazer + Sweater" blush:viewBox="31.67999999999998 27.235576923076934 200.64000000000004 83.29326923076921"><defs blush:i="0.2.0.3.0"><path d="M67,1.34762511 C67,13.2107177 81.9984609,22.8276544 100.5,22.8276544 C119.001539,22.8276544 134,13.2107177 134,1.34762511 C134,0.994756918 133.98673,0.64387605 133.960492,0.295176488 C170.936371,3.3248899 200,34.2942196 200,72.0517235 L200,81 L0,81 L0,72.0517235 C-4.66584974e-15,33.952169 29.5925972,2.76433598 67.0465686,0.219447423 C67.0151943,0.594730017 67,0.970039821 67,1.34762511 Z" id="clothingblazer-sweater-path-1" blush:i="0.2.0.3.0.0"/></defs><g id="Clothing/Blazer + Sweater" stroke="none" stroke-width="1" fill="none" fill-rule="evenodd" blush:viewBox="31.67999999999998 27.235576923076934 200.64000000000004 83.29326923076921" blush:i="0.2.0.3.1"><g id="Shirt" transform="translate(32.000000, 29.000000)" blush:i="0.2.0.3.1.0"><mask id="clothingblazer-sweater-mask-2" fill="#ffffff" blush:i="0.2.0.3.1.0.0"><use xlink:href="#clothingblazer-sweater-path-1" fill="#ffffff" blush:i="0.2.0.3.1.0.0.0"/></mask><use id="Clothes" fill="#e6d25f" xlink:href="#clothingblazer-sweater-path-1" blush:color="Top-500" blush:i="0.2.0.3.1.0.1"/><g id="Shadowy" opacity=".6" mask="url(#clothingblazer-sweater-mask-2)" fill="#000" fill-opacity=".16" blush:i="0.2.0.3.1.0.2"><g transform="translate(60.000000, -25.000000)" id="Hola-👋🏼" blush:i="0.2.0.3.1.0.2.0"><ellipse cx="40.5" cy="27.848" rx="39.635" ry="26.914" blush:i="0.2.0.3.1.0.2.0.0"/></g></g></g><g id="Blazer" transform="translate(32.000000, 28.000000)" blush:i="0.2.0.3.1.1"><path d="M64,40.5 C64,55.7092257 65.9608691,69.9209213 69.3620096,82.0011822 L0,82 L0,73.0517235 C-4.73779789e-15,34.3646678 30.512279,2.80413671 68.7847355,1.12223161 C65.7400343,12.7307619 64,26.1727873 64,40.5 Z M200,73.0517235 L200,82 L131.63799,82.0011822 C135.039131,69.9209213 137,55.7092257 137,40.5 C137,26.194165 135.265154,12.7708778 132.228695,1.1737534 C170.025091,3.36299447 200,34.7068514 200,73.0517235 Z" id="Saco" fill="#143045" blush:i="0.2.0.3.1.1.0"/><path d="M149,58 L158.555853,50.83311 C159.998897,49.7508275 161.987779,49.7682725 163.411616,50.8757011 L170,56 L170,56 L149,58 Z" id="Pocket-hanky" fill="#e6d25f" blush:color="Top-500" blush:i="0.2.0.3.1.1.1"/><path d="M69,0 C65,19.3333333 66.6666667,46.6666667 74,82 L58,82 L44,46 L50,37 L44,31 L63,1 C65.027659,0.369238637 67.027659,0.0359053037 69,0 Z" id="Wing" fill="#D23474" blush:i="0.2.0.3.1.1.2"/><path d="M151,0 C147,19.3333333 148.666667,46.6666667 156,82 L140,82 L126,46 L132,37 L126,31 L145,1 C147.027659,0.369238637 149.027659,0.0359053037 151,0 Z" id="Wing" fill="#D23474" transform="translate(141.000000, 41.000000) scale(-1, 1) translate(-141.000000, -41.000000)" blush:i="0.2.0.3.1.1.3"/></g></g></g><g id="Mouth" fill="none" transform="translate(79.000000, 134.000000) scale(1 1)" fill-rule="evenodd" blush:width="108" blush:height="44" blush:component="Mouth" blush:i="0.2.0.4" blush:value="Default" blush:viewBox="39.96000000000001 14.990196078431374 28.080000000000027 14.019607843137255"><g id="Mouth/Default" stroke="none" stroke-width="1" fill="none" fill-rule="evenodd" blush:viewBox="39.96000000000001 14.990196078431374 28.080000000000027 14.019607843137255" blush:i="0.2.0.4.0"><path d="M40,15 C40,22.7319865 46.2680135,29 54,29 L54,29 C61.7319865,29 68,22.7319865 68,15" id="Mouth" fill-opacity=".7" fill="#000" blush:i="0.2.0.4.0.0"/></g></g><g id="Eyes" fill="none" transform="translate(77.000000, 90.000000) scale(1 1)" fill-rule="evenodd" blush:width="112" blush:height="44" blush:component="Eyes" blush:i="0.2.0.5" blush:value="Default" blush:viewBox="23.519999999999996 15.826530612244895 64.96 12.346938775510205"><g id="Eyes/Default" stroke="none" stroke-width="1" fill="none" fill-rule="evenodd" blush:viewBox="23.519999999999996 15.826530612244895 64.96 12.346938775510205" blush:i="0.2.0.5.0"><circle id="Eye" fill-opacity=".6" fill="#000" cx="30" cy="22" r="6" blush:i="0.2.0.5.0.0"/><circle id="Eye" fill-opacity=".6" fill="#000" cx="82" cy="22" r="6" blush:i="0.2.0.5.0.1"/></g></g><g id="Eyebrow/Outline" fill="none" transform="translate(77.000000, 82.000000) scale(1 1)" fill-rule="evenodd" blush:width="112" blush:height="24" blush:component="Eyebrow/Outline" blush:i="0.2.0.6" blush:value="Default" blush:viewBox="11.760000000000005 5.551401869158877 88.48000000000002 12.897196261682238"><g id="Eyebrow/Outline/Default" stroke="none" stroke-width="1" fill="none" fill-rule="evenodd" blush:viewBox="11.760000000000005 5.551401869158877 88.48000000000002 12.897196261682238" blush:i="0.2.0.6.0"><g id="I-Browse" transform="translate(12.000000, 6.000000)" fill="#000" fill-opacity=".6" fill-rule="nonzero" blush:i="0.2.0.6.0.0"><path d="M3.63024536,11.1585767 C7.54515501,5.64986673 18.2779197,2.56083721 27.5230268,4.83118046 C28.5957248,5.0946055 29.6788665,4.43856013 29.9422916,3.36586212 C30.2057166,2.2931641 29.5496712,1.21002236 28.4769732,0.94659732 C17.7403633,-1.69001789 5.31209962,1.88699832 0.369754639,8.84142326 C-0.270109626,9.74178291 -0.0589363917,10.9903811 0.84142326,11.6302454 C1.74178291,12.2701096 2.9903811,12.0589364 3.63024536,11.1585767 Z" id="Eyebrow" blush:i="0.2.0.6.0.0.0"/><path d="M61.6302454,11.1585767 C65.545155,5.64986673 76.2779197,2.56083721 85.5230268,4.83118046 C86.5957248,5.0946055 87.6788665,4.43856013 87.9422916,3.36586212 C88.2057166,2.2931641 87.5496712,1.21002236 86.4769732,0.94659732 C75.7403633,-1.69001789 63.3120996,1.88699832 58.3697546,8.84142326 C57.7298904,9.74178291 57.9410636,10.9903811 58.8414233,11.6302454 C59.7417829,12.2701096 60.9903811,12.0589364 61.6302454,11.1585767 Z" id="Eyebrow" transform="translate(73.000154, 6.039198) scale(-1, 1) translate(-73.000154, -6.039198)" blush:i="0.2.0.6.0.0.1"/></g></g></g><g id="Facial Hair" fill="none" transform="translate(50.000000, 72.000000) scale(1 1)" fill-rule="evenodd" blush:width="168" blush:height="152" blush:component="Facial Hair" blush:i="0.2.0.7" blush:value="-Blank" blush:viewBox="294 266 0 0"><g id="Facial Hair/Blank" stroke="none" stroke-width="1" fill="none" fill-rule="evenodd" fill-opacity="0" blush:viewBox="294 266 0 0" blush:i="0.2.0.7.0"/></g><g id="Hairstyle" fill="none" fill-rule="evenodd" blush:width="266" blush:height="280" blush:component="Hairstyle" blush:i="0.2.0.8" blush:value="Short Curly" transform="scale(1 1)" blush:viewBox="72.10000000000002 8.400000000000006 123.19999999999997 92.39999999999992"><g id="Hairstyle/Short Curly" stroke="none" stroke-width="1" fill="none" fill-rule="evenodd" blush:viewBox="72.10000000000002 8.400000000000006 123.19999999999997 92.39999999999992" blush:i="0.2.0.8.0"><path d="M94.2519269,52.0221149 C94.3749353,51.9677149 94.0696712,51.9468149 93.3361345,51.9595149 C94.2276637,51.9577149 94.5329279,51.9785149 94.2519269,52.0221149 M86.1169775,36.3015924 C86.1148422,36.2819924 86.1337548,36.4526924 86.1169775,36.3015924 M193.765056,70.7656665 C193.500946,67.448734 193.03295,64.1518864 192.246676,60.9110823 C191.622233,58.3353492 190.769007,55.8775343 189.760006,53.4200433 C189.150703,51.9353766 187.727538,49.8961062 187.560324,48.2944933 C187.395466,46.7168527 188.626521,44.969138 188.889285,43.1323368 C189.144311,41.3447761 189.100909,39.4652134 188.734183,37.6938503 C187.901144,33.6710288 185.140271,29.9300447 180.877167,28.8814158 C179.925362,28.6471994 177.913417,28.9358396 177.240862,28.3815597 C176.469729,27.7459682 175.932761,25.5806808 175.234637,24.7121687 C173.244224,22.2362125 170.13984,20.6417265 166.865887,21.1976261 C164.454917,21.606776 165.839391,22.1053363 164.032005,20.6864317 C163.027041,19.8976114 162.276095,18.6931622 161.300066,17.8392279 C159.832826,16.5563826 158.149588,15.4581893 156.408146,14.556958 C151.851325,12.19892 146.654249,10.4848961 141.564162,9.64942693 C132.278934,8.12523827 122.368926,9.45408458 113.368668,11.8688141 C108.890239,13.0703477 104.381531,14.5951842 100.222053,16.6117782 C98.4385542,17.4764029 97.4090304,18.1936301 95.5494951,18.4200717 C92.6207355,18.7767416 90.1404579,18.7589243 87.3661268,20.0009517 C78.8298269,23.8229236 74.9849256,32.6897818 78.3066539,41.1750259 C78.974835,42.8815988 79.8795374,44.3801954 81.1267416,45.7586062 C82.6474761,47.4392631 83.1975648,47.1085093 81.8877817,49.0411999 C79.9289949,51.9311653 78.2777195,55.0129095 76.9332826,58.2128958 C73.4043038,66.6145606 72.8138416,76.0771643 73.043634,85.0373203 C73.1240445,88.1741362 73.2586228,91.3495022 73.753198,94.4561907 C73.966841,95.8009106 74.0267283,98.3293468 75.0353925,99.3271154 C75.5471264,99.8331265 76.2762042,100.115288 77.0035997,99.9137903 C78.7130802,99.4401742 78.1253096,98.1787097 78.1650102,97.0076274 C78.364859,91.1240324 78.0950295,85.9191145 79.4943071,80.1064647 C80.5278683,75.8118486 82.2504702,71.9114806 84.4827873,68.0713675 C87.3213795,63.1871608 90.3857268,58.8977279 94.2895061,54.7155226 C95.2073299,53.7320079 95.4078515,53.3150832 96.6385698,53.243814 C97.5705244,53.1900382 98.9338023,53.8282213 99.8398505,54.0491558 C101.837665,54.5360539 103.83918,55.0174448 105.873331,55.3452831 C109.613261,55.9481556 113.316519,55.9886494 117.090094,55.8704074 C124.516459,55.6381346 131.974787,55.1172217 139.175061,53.2470535 C143.956964,52.00535 148.196516,49.7762443 152.776887,48.1422364 C152.858644,48.1130808 154.006596,47.2951049 154.207791,47.3284719 C154.488723,47.3747968 156.184746,49.1542588 156.471061,49.3784327 C158.696649,51.1238798 161.137899,51.8566566 163.541467,53.2081794 C166.504881,54.8745825 163.634999,52.4899804 165.269452,54.5668292 C165.745859,55.1716454 165.989782,56.2931632 166.371984,56.9783192 C167.587899,59.1610999 169.279548,61.0795367 171.302932,62.6017816 C173.258018,64.0725184 176.196198,64.7829426 177.193087,66.697168 C177.961865,68.1740599 178.220929,70.1812592 178.841334,71.7579279 C180.468722,75.8931602 182.617937,79.7494709 184.767152,83.6443317 C186.498502,86.7830913 188.392354,89.5250111 188.584801,93.1117947 C188.651754,94.3603012 187.463764,101.849397 190.357534,99.5716982 C190.786502,99.2341415 191.711391,95.415733 191.901483,94.7678314 C192.672616,92.135083 192.94682,89.3866841 193.29605,86.6816947 C193.990474,81.3021672 194.218584,76.1837441 193.765056,70.7656665" id="Short-Hair" fill="#724133" blush:color="Hair-500" blush:i="0.2.0.8.0.0"/></g></g><g id="Accesories" fill="none" transform="translate(63.000000, 85.000000) scale(1 1)" fill-rule="evenodd" blush:width="142" blush:height="54" blush:component="Accesories" blush:i="0.2.0.9" blush:value="Blank" blush:viewBox="248.5 94.5 0 0"><g id="Accesories/Blank" stroke="none" stroke-width="1" fill="none" fill-rule="evenodd" fill-opacity="0" blush:viewBox="248.5 94.5 0 0" blush:i="0.2.0.9.0"/></g></g></g></g></svg>