<svg viewBox="0 0 279.99999999999994 279.99999999999994" xmlns="http://www.w3.org/2000/svg" xmlns:xlink="http://www.w3.org/1999/xlink" xmlns:blush="http://design.blush" overflow="visible" width="279.99999999999994" height="279.99999999999994"><defs><circle id="masteravataaardefault-with-backdrop-path-1" cx="140" cy="140" r="140"/><path d="M83,36.3476251 C83,52.6289957 105.161905,65.8276544 132.5,65.8276544 C159.838095,65.8276544 182,52.6289957 182,36.3476251 C182,34.9853134 181.844841,33.6445843 181.544472,32.3313638 C210.784239,41.4879251 232,68.792221 232,101.051724 L232,110 L32,110 L32,101.051724 C32,68.3970853 53.7386736,40.8197864 83.5337207,32.0021267 C83.1821692,33.4207025 83,34.871494 83,36.3476251 Z" id="masteravataaardefault-with-backdrop-path-3"/></defs><g id="Master/Avataaar/Default with Backdrop" stroke="none" stroke-width="1" fill="none" fill-rule="evenodd" blush:has-customizable-colors="true" blush:viewBox="0 0 279.99999999999994 279.99999999999994" blush:i="0"><mask id="masteravataaardefault-with-backdrop-mask-2" fill="#ffffff" blush:i="0.0"><use xlink:href="#masteravataaardefault-with-backdrop-path-1" fill="#ffffff" blush:i="0.0.0"/></mask><use id="Oval" fill="#beb0e4" xlink:href="#masteravataaardefault-with-backdrop-path-1" blush:color="Backdrop-500" blush:i="0.1"/><g id="Group" mask="url(#masteravataaardefault-with-backdrop-mask-2)" blush:i="0.2"><g transform="translate(7.000000, 0.000000)" blush:i="0.2.0"><path d="M133,36 C163.927946,36 189,61.072054 189,92 L189.000809,98.1660527 C194.675838,99.1185422 199,104.05429 199,110 L199,124 C199,130.052417 194.519235,135.058294 188.693975,135.881364 C186.627928,155.686472 174.237929,172.421678 157.001014,180.610469 L157,199 L161,199 C200.764502,199 233,231.235498 233,271 L233,280 L33,280 L33,271 C33,231.235498 65.235498,199 105,199 L109,199 L108.999984,180.610943 C91.7625487,172.422324 79.3721119,155.686854 77.3051107,135.88097 C71.480765,135.058294 67,130.052417 67,124 L67,110 C67,104.053942 71.3246685,99.1179645 77.0001873,98.1658855 L77,92 C77,61.072054 102.072054,36 133,36 Z" id="Body" fill="#d08b5b" fill-rule="evenodd" blush:color="Skin-500" blush:i="0.2.0.0"/><path d="M108.998216,180.610103 C116.272713,184.066155 124.410519,186 133,186 C141.588785,186 149.725969,184.066469 157.000016,180.610943 L157.000353,185.94579 C150.441661,190.398372 142.524652,193 134,193 C124.589035,193 115.918635,189.829263 108.998807,184.497795 Z" id="shadow" fill-opacity=".24" fill="#000" fill-rule="evenodd" blush:i="0.2.0.1"/><g id="Nose" fill="none" transform="translate(105.000000, 122.000000) scale(1 1)" fill-rule="evenodd" blush:width="56" blush:height="24" blush:component="Nose" blush:i="0.2.0.2" blush:value="Medium" blush:viewBox="15.959999999999994 7.794392523364486 24.07999999999999 8.411214953271022"><g id="Nose/Medium" stroke="none" stroke-width="1" fill="none" fill-rule="evenodd" blush:viewBox="15.959999999999994 7.794392523364486 24.07999999999999 8.411214953271022" blush:i="0.2.0.2.0"><path d="M16,8 C16,12.418278 21.372583,16 28,16 L28,16 C34.627417,16 40,12.418278 40,8" id="Nose" fill-opacity=".16" fill="#000" blush:i="0.2.0.2.0.0"/></g></g><g id="Clothing" fill="none" transform="translate(1.000000, 170.000000) scale(1 1)" blush:width="264" blush:height="110" blush:component="Clothing" blush:i="0.2.0.3" blush:value="Shirt Crew Neck" blush:viewBox="31.67999999999998 28.557692307692307 200.64000000000004 81.97115384615383"><defs blush:i="0.2.0.3.0"><path d="M99,30.3476251 C99,42.2107177 113.998461,51.8276544 132.5,51.8276544 C151.001539,51.8276544 166,42.2107177 166,30.3476251 C166,29.9947569 165.98673,29.643876 165.960492,29.2951765 C202.936371,32.3248899 232,63.2942196 232,101.051724 L232,110 L32,110 L32,101.051724 C32,62.952169 61.5925972,31.764336 99.0465686,29.2194474 C99.0151943,29.59473 99,29.9700398 99,30.3476251 Z" id="clothingshirt-crew-neck-path-1" blush:i="0.2.0.3.0.0"/></defs><g id="Clothing/Shirt Crew Neck" stroke="none" stroke-width="1" fill="none" fill-rule="evenodd" blush:viewBox="31.67999999999998 28.557692307692307 200.64000000000004 81.97115384615383" blush:i="0.2.0.3.1"><mask id="clothingshirt-crew-neck-mask-2" fill="#ffffff" blush:i="0.2.0.3.1.0"><use xlink:href="#clothingshirt-crew-neck-path-1" fill="#ffffff" blush:i="0.2.0.3.1.0.0"/></mask><use id="Clothes" fill="#60e5ab" xlink:href="#clothingshirt-crew-neck-path-1" blush:color="Top-500" blush:i="0.2.0.3.1.1"/><g id="Shadowy" opacity=".6" mask="url(#clothingshirt-crew-neck-mask-2)" fill="#000" fill-opacity=".16" blush:i="0.2.0.3.1.2"><g transform="translate(92.000000, 4.000000)" id="Hola-👋🏼" blush:i="0.2.0.3.1.2.0"><ellipse cx="40.5" cy="27.848" rx="39.635" ry="26.914" blush:i="0.2.0.3.1.2.0.0"/></g></g></g></g><g id="Mouth" fill="none" transform="translate(79.000000, 134.000000) scale(1 1)" fill-rule="evenodd" blush:width="108" blush:height="44" blush:component="Mouth" blush:i="0.2.0.4" blush:value="Default" blush:viewBox="39.96000000000001 14.990196078431374 28.080000000000027 14.019607843137255"><g id="Mouth/Default" stroke="none" stroke-width="1" fill="none" fill-rule="evenodd" blush:viewBox="39.96000000000001 14.990196078431374 28.080000000000027 14.019607843137255" blush:i="0.2.0.4.0"><path d="M40,15 C40,22.7319865 46.2680135,29 54,29 L54,29 C61.7319865,29 68,22.7319865 68,15" id="Mouth" fill-opacity=".7" fill="#000" blush:i="0.2.0.4.0.0"/></g></g><g id="Eyes" fill="none" transform="translate(77.000000, 90.000000) scale(1 1)" fill-rule="evenodd" blush:width="112" blush:height="44" blush:component="Eyes" blush:i="0.2.0.5" blush:value="Default" blush:viewBox="23.519999999999996 15.826530612244895 64.96 12.346938775510205"><g id="Eyes/Default" stroke="none" stroke-width="1" fill="none" fill-rule="evenodd" blush:viewBox="23.519999999999996 15.826530612244895 64.96 12.346938775510205" blush:i="0.2.0.5.0"><circle id="Eye" fill-opacity=".6" fill="#000" cx="30" cy="22" r="6" blush:i="0.2.0.5.0.0"/><circle id="Eye" fill-opacity=".6" fill="#000" cx="82" cy="22" r="6" blush:i="0.2.0.5.0.1"/></g></g><g id="Eyebrow/Outline" fill="none" transform="translate(77.000000, 82.000000) scale(1 1)" fill-rule="evenodd" blush:width="112" blush:height="24" blush:component="Eyebrow/Outline" blush:i="0.2.0.6" blush:value="Default" blush:viewBox="11.760000000000005 5.551401869158877 88.48000000000002 12.897196261682238"><g id="Eyebrow/Outline/Default" stroke="none" stroke-width="1" fill="none" fill-rule="evenodd" blush:viewBox="11.760000000000005 5.551401869158877 88.48000000000002 12.897196261682238" blush:i="0.2.0.6.0"><g id="I-Browse" transform="translate(12.000000, 6.000000)" fill="#000" fill-opacity=".6" fill-rule="nonzero" blush:i="0.2.0.6.0.0"><path d="M3.63024536,11.1585767 C7.54515501,5.64986673 18.2779197,2.56083721 27.5230268,4.83118046 C28.5957248,5.0946055 29.6788665,4.43856013 29.9422916,3.36586212 C30.2057166,2.2931641 29.5496712,1.21002236 28.4769732,0.94659732 C17.7403633,-1.69001789 5.31209962,1.88699832 0.369754639,8.84142326 C-0.270109626,9.74178291 -0.0589363917,10.9903811 0.84142326,11.6302454 C1.74178291,12.2701096 2.9903811,12.0589364 3.63024536,11.1585767 Z" id="Eyebrow" blush:i="0.2.0.6.0.0.0"/><path d="M61.6302454,11.1585767 C65.545155,5.64986673 76.2779197,2.56083721 85.5230268,4.83118046 C86.5957248,5.0946055 87.6788665,4.43856013 87.9422916,3.36586212 C88.2057166,2.2931641 87.5496712,1.21002236 86.4769732,0.94659732 C75.7403633,-1.69001789 63.3120996,1.88699832 58.3697546,8.84142326 C57.7298904,9.74178291 57.9410636,10.9903811 58.8414233,11.6302454 C59.7417829,12.2701096 60.9903811,12.0589364 61.6302454,11.1585767 Z" id="Eyebrow" transform="translate(73.000154, 6.039198) scale(-1, 1) translate(-73.000154, -6.039198)" blush:i="0.2.0.6.0.0.1"/></g></g></g><g id="Facial Hair" fill="none" transform="translate(50.000000, 72.000000) scale(1 1)" fill-rule="evenodd" blush:width="168" blush:height="152" blush:component="Facial Hair" blush:i="0.2.0.7" blush:value="-Blank" blush:viewBox="294 266 0 0"><g id="Facial Hair/Blank" stroke="none" stroke-width="1" fill="none" fill-rule="evenodd" fill-opacity="0" blush:viewBox="294 266 0 0" blush:i="0.2.0.7.0"/></g><g id="Hairstyle" fill="none" fill-rule="evenodd" blush:width="266" blush:height="280" blush:component="Hairstyle" blush:i="0.2.0.8" blush:value="Winter Hat 1" transform="scale(1 1)" blush:viewBox="62.30000000000001 19.600000000000023 141.40000000000006 166.6"><defs blush:i="0.2.0.8.0"><filter x="-.8%" y="-2.8%" width="101.7%" height="111.1%" filterUnits="objectBoundingBox" id="hairstylewinter-hat-1-filter-4" blush:i="0.2.0.8.0.0"><feOffset dy="2" in="SourceAlpha" result="shadowOffsetOuter1" blush:i="0.2.0.8.0.0.0"/><feColorMatrix values="0 0 0 0 0 0 0 0 0 0 0 0 0 0 0 0 0 0 0.1 0" in="shadowOffsetOuter1" blush:i="0.2.0.8.0.0.1"/></filter><rect id="hairstylewinter-hat-1-path-3" x="74" y="50" width="118" height="36" rx="8" blush:i="0.2.0.8.0.1"/><path d="M140,155 C140,160.522847 135.522847,165 130,165 C124.477153,165 120,160.522847 120,155 L120,54 L20,54 L20,155 C20,160.522847 15.5228475,165 10,165 C4.4771525,165 6.76353751e-16,160.522847 0,155 L0,44 C-2.9759565e-15,19.699471 19.699471,4.46393476e-15 44,0 L96,0 C120.300529,-4.46393476e-15 140,19.699471 140,44 L140,155 Z" id="hairstylewinter-hat-1-path-1" blush:i="0.2.0.8.0.2"/></defs><g id="Hairstyle/Winter Hat 1" stroke="none" stroke-width="1" fill="none" fill-rule="evenodd" blush:viewBox="62.30000000000001 19.600000000000023 141.40000000000006 166.6" blush:i="0.2.0.8.1"><g id="hat" transform="translate(63.000000, 20.000000)" blush:i="0.2.0.8.1.0"><path d="M23.6714286,48 L23.6714286,153.664286 C23.6714286,159.924828 18.5962564,165 12.3357143,165 C6.07517216,165 1,159.924828 1,153.664286 L1,48 L23.6714286,48 Z M139,48 L139,153.664286 C139,159.924828 133.924828,165 127.664286,165 C121.403744,165 116.328571,159.924828 116.328571,153.664286 L116.328571,48 L139,48 Z" id="inside" fill="#F4F4F4" blush:i="0.2.0.8.1.0.0"/><mask id="hairstylewinter-hat-1-mask-2" fill="#ffffff" blush:i="0.2.0.8.1.0.1"><use xlink:href="#hairstylewinter-hat-1-path-1" fill="#ffffff" blush:i="0.2.0.8.1.0.1.0"/></mask><use id="hat-mask" fill="#D8D8D8" xlink:href="#hairstylewinter-hat-1-path-1" blush:i="0.2.0.8.1.0.2"/><g id="🎨-Hat-Color" mask="url(#hairstylewinter-hat-1-mask-2)" fill="#FF5C5C" blush:i="0.2.0.8.1.0.3"><g transform="translate(-4.000000, -1.000000)" id="🖍Color" blush:i="0.2.0.8.1.0.3.0"><rect width="149" height="172" blush:i="0.2.0.8.1.0.3.0.0"/></g></g></g><g id="hat-front" blush:i="0.2.0.8.1.1"><use fill="#000" filter="url(#hairstylewinter-hat-1-filter-4)" xlink:href="#hairstylewinter-hat-1-path-3" blush:i="0.2.0.8.1.1.0"/><use fill="#F4F4F4" xlink:href="#hairstylewinter-hat-1-path-3" blush:i="0.2.0.8.1.1.1"/></g></g></g><g id="Accesories" fill="none" transform="translate(63.000000, 85.000000) scale(1 1)" fill-rule="evenodd" blush:width="142" blush:height="54" blush:component="Accesories" blush:i="0.2.0.9" blush:value="Blank" blush:viewBox="248.5 94.5 0 0"><g id="Accesories/Blank" stroke="none" stroke-width="1" fill="none" fill-rule="evenodd" fill-opacity="0" blush:viewBox="248.5 94.5 0 0" blush:i="0.2.0.9.0"/></g></g></g></g></svg>