<?xml version="1.0" encoding="UTF-8"?>
<svg xmlns="http://www.w3.org/2000/svg" viewBox="0 0 378.29 458.55">
  <defs>
    <style>
      .cls-1 {
        fill: #ffc95c;
      }

      .cls-2 {
        fill: #fff;
      }

      .cls-3 {
        fill: #dbdbdb;
      }

      .cls-4 {
        fill: #232323;
      }

      .cls-5 {
        fill: #1c1c1c;
      }

      .cls-6 {
        fill: #d3d3d3;
      }

      .cls-7 {
        fill: #ffce00;
      }

      .cls-8 {
        fill: none;
      }

      .cls-9 {
        fill: #7a7a7a;
      }

      .cls-10 {
        fill: #a8a8a8;
      }

      .cls-11 {
        fill: #ffa310;
      }

      .cls-12 {
        fill: #2d2d2b;
      }

      .cls-13 {
        fill: #feff08;
      }
    </style>
  </defs>
  <g id="Layer_1" data-name="Layer 1">
    <g>
      <path class="cls-2" d="M312.02,450.06c-.53,0-1.07-.04-1.61-.11L10.39,407.57c-6.28-.89-10.67-6.72-9.78-13L54.88,10.39c.8-5.64,5.69-9.89,11.39-9.89,.53,0,1.07,.04,1.61,.11L367.9,42.99c6.28,.89,10.67,6.72,9.78,13l-54.27,384.19c-.8,5.64-5.69,9.89-11.39,9.89Z"/>
      <path d="M66.27,0V1c.51,0,1.03,.04,1.53,.11L367.83,43.49c6.01,.85,10.2,6.42,9.35,12.43l-54.27,384.19c-.76,5.39-5.45,9.46-10.89,9.46-.51,0-1.03-.04-1.54-.11L10.46,407.08c-6.01-.85-10.2-6.42-9.35-12.43L55.38,10.46c.76-5.39,5.45-9.46,10.89-9.46V0m0,0c-5.87,0-11.04,4.35-11.89,10.32L.12,394.51c-.92,6.54,3.67,12.64,10.2,13.56l300.02,42.38c.56,.08,1.12,.12,1.68,.12,5.87,0,11.04-4.35,11.89-10.32L378.17,56.06c.92-6.54-3.67-12.64-10.2-13.56L67.95,.12C67.38,.04,66.82,0,66.27,0h0Z"/>
    </g>
    <rect class="cls-3" x="198.1" y="-69.67" width="28" height="279" rx="12" ry="12" transform="translate(113.3 270.08) rotate(-81.96)"/>
    <rect class="cls-3" x="128.87" y="149.04" width="28" height="200" rx="12" ry="12" transform="translate(-123.71 355.67) rotate(-81.96)"/>
    <rect class="cls-3" x="163.36" y="70.83" width="28" height="247" rx="12" ry="12" transform="translate(-39.87 342.76) rotate(-81.96)"/>
    <rect class="cls-3" x="147.55" y="28.96" width="28" height="197" rx="12" ry="12" transform="translate(12.75 269.6) rotate(-81.96)"/>
    <rect class="cls-3" x="150.52" y="239.45" width="28" height="272" rx="12" ry="12" transform="translate(-230.25 485.84) rotate(-81.96)"/>
    <rect class="cls-3" x="92.89" y="236.55" width="28" height="134" rx="12" ry="12" transform="translate(-208.62 366.93) rotate(-81.96)"/>
  </g>
  <g id="Layer_2" data-name="Layer 2">
    <g>
      <path d="M72.19,69.97l24.53,16.85c-7.02,5.7-14.8,9.08-22.35,11l-2.18-27.85Z"/>
      <path class="cls-1" d="M96.72,86.82l12.44,8.54,36.97,25.39-66.93,38.64-3.5-44.71-1.32-16.86c7.54-1.92,15.32-5.3,22.35-11Z"/>
      <polygon class="cls-6" points="296.97 382.02 305.18 396.24 285.97 413.03 285.34 413.39 277.12 399.16 277.79 398.79 296.97 382.02"/>
      <path class="cls-12" d="M285.97,413.03l19.2-16.81,10.61,18.37c3.84,6.66-1.84,17.13-12.69,23.39l-2.66,1.54-15.08-26.13,.63-.36Z"/>
      <path class="cls-13" d="M135.6,154.02l2.66-1.54c10.85-6.26,22.22-6.87,25.4-1.35l133.84,231.81-19.59,16.05-.67,.38L135.59,154.02h0Z"/>
      <polygon class="cls-4" points="277.22 452.91 261.95 426.69 262.76 426.42 285.47 413.61 300.42 439.52 277.22 452.91"/>
      <polygon class="cls-7" points="111.3 168.05 135.59 154.02 277.24 399.37 254.74 412.13 253.86 412.45 111.3 168.05"/>
      <polygon class="cls-9" points="229.82 420.27 252.82 412.7 260.99 426.74 237.94 434.33 229.82 420.27"/>
      <path class="cls-5" d="M248.98,453.46l-10.65-18.44,23-7.56,15.09,25.92-1.27,.73c-10.69,6.16-22.41,5.88-26.17-.64Z"/>
      <path class="cls-11" d="M110.57,168.47l.04-.02,141.39,242.36-22.8,8.39L96.69,189.69c-3.16-5.47,3.06-14.97,13.88-21.22Z"/>
      <polygon class="cls-10" points="253.52 411.98 254.42 411.7 277 398.95 285.34 413.39 262.73 426.14 261.92 426.41 253.52 411.98"/>
      <path class="cls-11" d="M106.61,206.86l-27.59-47.79c-2.34-4.05,.36-9.98,6.03-13.25h0c5.67-3.27,12.16-2.64,14.49,1.4l27.59,47.79c2.34,4.05-.36,9.98-6.03,13.25h0c-5.67,3.27-12.16,2.64-14.49-1.4Z"/>
      <path class="cls-7" d="M127.69,195.97l-27.23-47.16c-2.44-4.22,.38-10.42,6.29-13.83l2.68-1.55c5.91-3.41,12.68-2.76,15.12,1.46l27.23,47.16c2.44,4.22-.38,10.42-6.29,13.83l-2.68,1.55c-5.91,3.41-12.68,2.76-15.12-1.46Z"/>
      <path class="cls-13" d="M151.78,182.06l-27.23-47.16c-2.44-4.22,.38-10.42,6.29-13.83l.89-.52c5.91-3.41,12.68-2.76,15.12,1.46l27.23,47.16c2.44,4.22-.38,10.42-6.29,13.83l-.89,.52c-5.91,3.41-12.68,2.76-15.12-1.46Z"/>
      <path class="cls-8" d="M110.76,69.79c-3.98,7.21-8.79,12.76-14.04,17.03"/>
      <path class="cls-8" d="M37.94,98.24s17.45,4.41,36.43-.42"/>
    </g>
  </g>
</svg>